<?xml version="1.0" encoding="UTF-8"?>
<svg width="24px" height="16px" viewBox="0 0 24 16" version="1.1" xmlns="http://www.w3.org/2000/svg" xmlns:xlink="http://www.w3.org/1999/xlink">
    <title>usa_flag</title>
    <g id="Page-1" stroke="none" stroke-width="1" fill="none" fill-rule="evenodd">
        <g id="usa_flag" fill-rule="nonzero">
            <g id="united-states-of-america">
                <rect id="Rectangle" fill="#F0F0F0" x="0" y="0.015149864" width="23.4342307" height="15.6229883"></rect>
                <g id="Group" transform="translate(0.000000, 1.922339)" fill="#D80027">
                    <rect id="Rectangle" x="0" y="0.0454953619" width="23.4342307" height="1.95268473"></rect>
                    <rect id="Rectangle" x="0" y="3.95136829" width="23.4342307" height="1.95268473"></rect>
                    <rect id="Rectangle" x="0" y="7.85673776" width="23.4342307" height="1.95268473"></rect>
                    <rect id="Rectangle" x="0" y="11.7626107" width="23.4342307" height="1.95268473"></rect>
                </g>
                <rect id="Rectangle" fill="#2E52B2" x="0" y="0.015149864" width="11.7171153" height="8.41238534"></rect>
                <g id="Group" transform="translate(1.190020, 1.327329)" fill="#F0F0F0">
                    <polygon id="Path" points="3.37883159 2.13397963 3.19012196 2.71452608 2.57973348 2.71452608 3.07363735 3.07313388 2.88492772 3.65363456 3.37883159 3.29502676 3.87241508 3.65363456 3.68375121 3.07313388 4.17765508 2.71452608 3.56722084 2.71452608"></polygon>
                    <polygon id="Path" points="3.56722084 4.80950968 3.37883159 4.229009 3.19012196 4.80950968 2.57973348 4.80950968 3.07363735 5.16816326 2.88492772 5.74866394 3.37883159 5.39001036 3.87241508 5.74866394 3.68375121 5.16816326 4.17765508 4.80950968"></polygon>
                    <polygon id="Path" points="0.987578896 4.80950968 0.799143881 4.229009 0.610434247 4.80950968 4.57699818e-05 4.80950968 0.493949643 5.16816326 0.305240008 5.74866394 0.799143881 5.39001036 1.29277313 5.74866394 1.10410927 5.16816326 1.5979216 4.80950968"></polygon>
                    <polygon id="Path" points="0.799143881 2.13397963 0.610434247 2.71452608 4.57699818e-05 2.71452608 0.493949643 3.07313388 0.305240008 3.65363456 0.799143881 3.29502676 1.29277313 3.65363456 1.10410927 3.07313388 1.5979216 2.71452608 0.987578896 2.71452608"></polygon>
                    <polygon id="Path" points="3.37883159 0.0389044845 3.19012196 0.619496703 2.57973348 0.619496703 3.07363735 0.97815028 2.88492772 1.55865096 3.37883159 1.19999738 3.87241508 1.55865096 3.68375121 0.97815028 4.17765508 0.619496703 3.56722084 0.619496703"></polygon>
                    <polygon id="Path" points="0.799143881 0.0389044845 0.610434247 0.619496703 4.57699818e-05 0.619496703 0.493949643 0.97815028 0.305240008 1.55865096 0.799143881 1.19999738 1.29277313 1.55865096 1.10410927 0.97815028 1.5979216 0.619496703 0.987578896 0.619496703"></polygon>
                    <polygon id="Path" points="5.95847353 2.13397963 5.76980967 2.71452608 5.15942119 2.71452608 5.6532793 3.07313388 5.4646612 3.65363456 5.95847353 3.29502676 6.45214856 3.65363456 6.26343892 3.07313388 6.7573428 2.71452608 6.14695432 2.71452608"></polygon>
                    <polygon id="Path" points="6.14695432 4.80950968 5.95847353 4.229009 5.76980967 4.80950968 5.15942119 4.80950968 5.6532793 5.16816326 5.4646612 5.74866394 5.95847353 5.39001036 6.45214856 5.74866394 6.26343892 5.16816326 6.7573428 4.80950968"></polygon>
                    <polygon id="Path" points="8.72664203 4.80950968 8.53820702 4.229009 8.34949738 4.80950968 7.73915467 4.80950968 8.23296701 5.16816326 8.04430314 5.74866394 8.53820702 5.39001036 9.03183627 5.74866394 8.84312663 5.16816326 9.33703051 4.80950968"></polygon>
                    <polygon id="Path" points="8.53820702 2.13397963 8.34949738 2.71452608 7.73915467 2.71452608 8.23296701 3.07313388 8.04430314 3.65363456 8.53820702 3.29502676 9.03183627 3.65363456 8.84312663 3.07313388 9.33703051 2.71452608 8.72664203 2.71452608"></polygon>
                    <polygon id="Path" points="5.95847353 0.0389044845 5.76980967 0.619496703 5.15942119 0.619496703 5.6532793 0.97815028 5.4646612 1.55865096 5.95847353 1.19999738 6.45214856 1.55865096 6.26343892 0.97815028 6.7573428 0.619496703 6.14695432 0.619496703"></polygon>
                    <polygon id="Path" points="8.53820702 0.0389044845 8.34949738 0.619496703 7.73915467 0.619496703 8.23296701 0.97815028 8.04430314 1.55865096 8.53820702 1.19999738 9.03183627 1.55865096 8.84312663 0.97815028 9.33703051 0.619496703 8.72664203 0.619496703"></polygon>
                </g>
            </g>
        </g>
    </g>
</svg>